<svg data-v-423bf9ae="" xmlns="http://www.w3.org/2000/svg" viewBox="0 0 834 90" class="iconLeft"><!----><!----><!----><g data-v-423bf9ae="" id="12e048e5-9941-4dcc-80de-94728fdfa0ac" fill="#1554c2" transform="matrix(5.934718302425701,0,0,5.934718302425701,180.600235264972,-8.26409476778035)"><path d="M2.69 9.70L3.82 6.08L3.86 6.08L4.96 9.70ZM-0.39 13.82L2.88 13.82L2.88 13.29L2.04 13.22C1.74 13.19 1.72 13.02 1.79 12.71C1.96 11.96 2.21 11.20 2.46 10.37L5.18 10.37L5.91 12.70C6.01 12.99 5.96 13.17 5.67 13.20L4.86 13.29L4.86 13.82L9.28 13.82L9.28 13.29C8.55 13.27 8.37 13.19 8.19 12.61L5.43 4.13L3.67 4.13L2.04 8.85C1.54 10.29 1.08 11.70 0.74 12.56C0.52 13.15 0.36 13.24-0.39 13.29ZM9.60 10.65L9.81 13.16C10.53 13.82 11.91 14.03 12.84 14.03C15.64 14 16.48 12.49 16.48 11.03C16.48 9.18 15.11 8.47 13.83 7.94C12.91 7.56 11.75 7.06 11.75 5.99C11.75 5.12 12.36 4.56 13.20 4.56C14.10 4.56 14.94 5.19 15.33 6.83L15.83 6.83L15.83 4.54C15.11 4.09 14.07 3.92 13.22 3.92C10.86 3.92 9.73 5.14 9.73 6.79C9.73 8.53 11.28 9.28 12.52 9.80C13.79 10.33 14.38 10.96 14.38 11.86C14.36 12.89 13.69 13.38 12.78 13.38C11.72 13.38 10.65 12.40 10.12 10.65ZM17.28 4.66C18.23 4.70 18.34 4.77 18.34 5.49L18.34 10.67C18.34 13.09 19.57 14.03 22.37 14.03C24.96 14.03 26.38 13.09 26.40 10.67L26.40 5.49C26.40 4.77 26.52 4.70 27.47 4.66L27.47 4.13L23.10 4.13L23.10 4.66C24.05 4.70 24.16 4.77 24.16 5.49L24.16 10.86C24.16 12.46 23.66 13.38 22.37 13.38C21.11 13.38 20.58 12.46 20.58 10.86L20.58 5.49C20.58 4.77 20.69 4.70 21.64 4.66L21.64 4.13L17.28 4.13ZM28.08 6.76L28.62 6.76C29.09 5.36 29.27 4.77 30.56 4.77L31.12 4.77L31.12 12.49C31.12 12.99 31.02 13.20 30.58 13.23L29.78 13.29L29.78 13.82L34.71 13.82L34.71 13.29L33.91 13.23C33.46 13.20 33.36 12.99 33.36 12.49L33.36 4.77L33.92 4.77C35.21 4.77 35.39 5.36 35.87 6.76L36.40 6.76L36.40 4.13L28.08 4.13ZM39.68 8.97C39.68 7.28 39.93 4.56 41.99 4.56C44.04 4.56 44.30 7.28 44.30 8.97C44.30 10.67 44.04 13.38 41.99 13.38C39.96 13.38 39.68 10.67 39.68 8.97ZM37.20 8.97C37.20 12.14 38.77 14.03 41.99 14.03C45.21 14.03 46.77 12.14 46.77 8.97C46.77 5.81 45.21 3.92 41.99 3.92C38.77 3.92 37.20 5.81 37.20 8.97ZM51.17 8.72L51.17 5.32C51.17 4.94 51.30 4.77 52.07 4.77C53.02 4.77 53.73 5.29 53.73 6.72C53.73 7.88 53.28 8.72 51.87 8.72ZM47.82 13.82L52.28 13.82L52.28 13.29C51.28 13.24 51.17 13.17 51.17 12.46L51.17 9.37L51.81 9.37C52.51 9.37 52.91 9.70 53.07 10.46C53.19 10.95 53.30 11.70 53.52 12.42C53.86 13.45 54.46 13.82 55.93 13.82L56.97 13.82L56.97 13.29C56.71 13.27 56.48 13.15 56.31 12.98C55.96 12.63 55.75 12.11 55.62 11.38C55.43 10.26 55.16 9.34 53.72 8.97L53.72 8.95C55.10 8.76 56.08 7.85 56.08 6.64C56.08 5.92 55.89 5.32 55.38 4.86C54.85 4.40 54.05 4.13 52.68 4.13L47.82 4.13L47.82 4.66C48.82 4.70 48.93 4.77 48.93 5.49L48.93 12.46C48.93 13.17 48.82 13.24 47.82 13.29ZM60.47 9.04C60.47 11.26 61.29 12.54 62.36 13.26C63.38 13.94 64.69 14.03 65.62 14.03C66.68 14.03 68.04 13.79 69.02 13.36L69.02 10.75C69.02 10.09 69.13 10.02 69.80 9.95L69.80 9.42L65.58 9.42L65.58 9.95C66.67 10.02 66.78 10.09 66.78 10.78L66.78 12.75C66.78 13.24 66.58 13.38 65.62 13.38C63.08 13.38 62.94 9.88 62.94 8.86C62.94 7.43 63.29 4.56 65.74 4.56C67.30 4.56 67.96 5.88 68.35 7.08L68.88 7.08L68.88 4.54C68.00 4.06 66.78 3.92 65.67 3.92C61.19 3.92 60.47 7.11 60.47 9.04ZM70.45 4.66C71.40 4.70 71.51 4.77 71.51 5.49L71.51 10.67C71.51 13.09 72.74 14.03 75.54 14.03C78.13 14.03 79.55 13.09 79.58 10.67L79.58 5.49C79.58 4.77 79.69 4.70 80.64 4.66L80.64 4.13L76.27 4.13L76.27 4.66C77.22 4.70 77.34 4.77 77.34 5.49L77.34 10.86C77.34 12.46 76.83 13.38 75.54 13.38C74.28 13.38 73.75 12.46 73.75 10.86L73.75 5.49C73.75 4.77 73.86 4.70 74.82 4.66L74.82 4.13L70.45 4.13ZM83.73 9.70L84.87 6.08L84.91 6.08L86.00 9.70ZM80.65 13.82L83.93 13.82L83.93 13.29L83.09 13.22C82.78 13.19 82.77 13.02 82.84 12.71C83.01 11.96 83.26 11.20 83.51 10.37L86.23 10.37L86.95 12.70C87.05 12.99 87.01 13.17 86.72 13.20L85.90 13.29L85.90 13.82L90.33 13.82L90.33 13.29C89.60 13.27 89.42 13.19 89.24 12.61L86.48 4.13L84.71 4.13L83.09 8.85C82.59 10.29 82.12 11.70 81.79 12.56C81.56 13.15 81.41 13.24 80.65 13.29ZM93.87 8.72L93.87 5.32C93.87 4.94 94.00 4.77 94.77 4.77C95.72 4.77 96.43 5.29 96.43 6.72C96.43 7.88 95.98 8.72 94.57 8.72ZM90.52 13.82L94.98 13.82L94.98 13.29C93.98 13.24 93.87 13.17 93.87 12.46L93.87 9.37L94.51 9.37C95.21 9.37 95.61 9.70 95.77 10.46C95.89 10.95 96.00 11.70 96.22 12.42C96.56 13.45 97.16 13.82 98.63 13.82L99.67 13.82L99.67 13.29C99.41 13.27 99.18 13.15 99.01 12.98C98.66 12.63 98.45 12.11 98.32 11.38C98.13 10.26 97.86 9.34 96.42 8.97L96.42 8.95C97.80 8.76 98.78 7.85 98.78 6.64C98.78 5.92 98.59 5.32 98.08 4.86C97.55 4.40 96.75 4.13 95.38 4.13L90.52 4.13L90.52 4.66C91.52 4.70 91.63 4.77 91.63 5.49L91.63 12.46C91.63 13.17 91.52 13.24 90.52 13.29ZM103.45 12.56L103.45 5.17C103.45 4.84 103.73 4.77 104.61 4.77C106.48 4.77 107.45 6.17 107.45 8.88C107.45 12.57 105.94 13.17 104.57 13.17C103.68 13.17 103.45 13.01 103.45 12.56ZM100.10 13.82L104.29 13.82C106.47 13.82 109.93 13.52 109.93 8.88C109.93 7.31 109.52 6.13 108.71 5.33C107.90 4.54 106.72 4.14 104.90 4.13L100.10 4.13L100.10 4.66C101.09 4.70 101.21 4.77 101.21 5.49L101.21 12.46C101.21 13.17 101.09 13.24 100.10 13.29Z"></path></g><!----><g data-v-423bf9ae="" id="619412fd-1fae-46e0-95c3-a202182057fb" transform="matrix(1.5800283753298707,0,0,1.5800283753298707,1.0885873833060913,-67.95398039171941)" stroke="none" fill="#FFAF15"><path d="M47.913 84.541c0 2.188-5.008 3.964-11.188 3.964-6.176 0-11.186-1.775-11.186-3.964v4.145c0 2.189 5.009 3.964 11.186 3.964 6.18 0 11.188-1.774 11.188-3.964v-4.145zM47.913 74.785c0 2.19-5.008 3.965-11.188 3.965-6.176 0-11.186-1.774-11.186-3.965 0-2.189 5.009-3.964 11.186-3.964 6.179 0 11.188 1.775 11.188 3.964"></path><path d="M47.913 77.591c0 2.189-5.008 3.964-11.188 3.964-6.176 0-11.186-1.774-11.186-3.964v4.145c0 2.189 5.009 3.964 11.186 3.964 6.18 0 11.188-1.774 11.188-3.964v-4.145zM47.913 91.874c0 2.189-5.008 3.964-11.188 3.964-6.176 0-11.186-1.774-11.186-3.964v4.146c0 2.188 5.009 3.962 11.186 3.962 6.18 0 11.188-1.774 11.188-3.962v-4.146zM73.851 84.541c0 2.188-5.007 3.964-11.188 3.964-6.175 0-11.187-1.775-11.187-3.964v4.145c0 2.189 5.009 3.964 11.187 3.964 6.181 0 11.188-1.774 11.188-3.964v-4.145z"></path><path d="M73.851 77.591c0 2.189-5.007 3.964-11.188 3.964-6.175 0-11.187-1.774-11.187-3.964v4.145c0 2.189 5.009 3.964 11.187 3.964 6.181 0 11.188-1.774 11.188-3.964v-4.145z"></path><path d="M73.851 70.641c0 2.189-5.007 3.965-11.188 3.965-6.175 0-11.187-1.775-11.187-3.965v4.145c0 2.19 5.009 3.965 11.187 3.965 6.181 0 11.188-1.774 11.188-3.965v-4.145zM73.851 60.886c0 2.189-5.007 3.964-11.188 3.964-6.175 0-11.187-1.774-11.187-3.964s5.009-3.965 11.187-3.965c6.181 0 11.188 1.774 11.188 3.965"></path><path d="M73.851 63.69c0 2.19-5.007 3.965-11.188 3.965-6.175 0-11.187-1.774-11.187-3.965v4.146c0 2.188 5.009 3.964 11.187 3.964 6.181 0 11.188-1.775 11.188-3.964V63.69zM73.851 91.874c0 2.189-5.007 3.964-11.188 3.964-6.175 0-11.187-1.774-11.187-3.964v4.146c0 2.188 5.009 3.962 11.187 3.962 6.181 0 11.188-1.774 11.188-3.962v-4.146zM99.78 84.541c0 2.188-5.006 3.964-11.186 3.964-6.176 0-11.188-1.775-11.188-3.964v4.145c0 2.189 5.009 3.964 11.188 3.964s11.186-1.774 11.186-3.964v-4.145z"></path><path d="M99.78 77.591c0 2.189-5.006 3.964-11.186 3.964-6.176 0-11.188-1.774-11.188-3.964v4.145c0 2.189 5.009 3.964 11.188 3.964s11.186-1.774 11.186-3.964v-4.145z"></path><path d="M99.78 70.641c0 2.189-5.006 3.965-11.186 3.965-6.176 0-11.188-1.775-11.188-3.965v4.145c0 2.19 5.009 3.965 11.188 3.965s11.186-1.774 11.186-3.965v-4.145z"></path><path d="M99.78 63.69c0 2.19-5.006 3.965-11.186 3.965-6.176 0-11.188-1.774-11.188-3.965v4.146c0 2.188 5.009 3.964 11.188 3.964s11.186-1.775 11.186-3.964V63.69z"></path><path d="M99.78 56.741c0 2.189-5.006 3.964-11.186 3.964-6.176 0-11.188-1.774-11.188-3.964v4.145c0 2.189 5.009 3.964 11.188 3.964s11.186-1.774 11.186-3.964v-4.145zM99.78 46.986c0 2.189-5.006 3.964-11.186 3.964-6.176 0-11.188-1.775-11.188-3.964 0-2.19 5.009-3.964 11.188-3.964s11.186 1.774 11.186 3.964"></path><path d="M99.78 49.791c0 2.189-5.006 3.964-11.186 3.964-6.176 0-11.188-1.774-11.188-3.964v4.145c0 2.19 5.009 3.965 11.188 3.965s11.186-1.774 11.186-3.965v-4.145zM99.78 91.874c0 2.189-5.006 3.964-11.186 3.964-6.176 0-11.188-1.774-11.188-3.964v4.146c0 2.188 5.009 3.962 11.188 3.962S99.78 98.208 99.78 96.02v-4.146zM21.975 89.066c0 2.192-5.009 3.967-11.187 3.967-6.177 0-11.187-1.774-11.187-3.967 0-2.188 5.01-3.962 11.187-3.962 6.178 0 11.187 1.775 11.187 3.962"></path><path d="M21.975 91.874c0 2.188-5.009 3.962-11.187 3.962-6.177 0-11.187-1.774-11.187-3.962v4.144c0 2.19 5.01 3.965 11.187 3.965 6.178 0 11.187-1.774 11.187-3.965v-4.144z"></path></g><!----></svg>